<svg width="34" height="54" viewBox="0 0 34 54" fill="none" xmlns="http://www.w3.org/2000/svg">
<path d="M0.21157 16.1519C0.464904 13.7705 1.0729 11.6425 2.03557 9.76788C3.0489 7.84255 4.31557 6.22121 5.83557 4.90388C7.35557 3.53588 9.0529 2.49721 10.9276 1.78788C12.8529 1.07854 14.8542 0.723877 16.9316 0.723877C19.3636 0.723877 21.6182 1.02788 23.6956 1.63588C25.7729 2.24388 27.5716 3.18121 29.0916 4.44788C30.6116 5.71454 31.8022 7.28521 32.6636 9.15988C33.5249 11.0345 33.9556 13.2385 33.9556 15.7719C33.9556 17.6972 33.6262 19.5972 32.9676 21.4719C32.3089 23.3465 31.3969 24.9679 30.2316 26.3359L15.1836 43.5119H33.8796V53.9999H0.0595703V44.6519L21.1876 20.4079C22.1502 19.2932 22.6316 18.0265 22.6316 16.6079C22.6316 15.2399 22.1502 13.9985 21.1876 12.8839C20.2756 11.7692 18.9329 11.2119 17.1596 11.2119C15.6902 11.2119 14.3982 11.7439 13.2836 12.8079C12.1689 13.8212 11.4596 15.5439 11.1556 17.9759L0.21157 16.1519Z" fill="#009E82" fill-opacity="0.45"/>
</svg>
