<svg width="36" height="55" viewBox="0 0 36 55" fill="none" xmlns="http://www.w3.org/2000/svg">
<path d="M11.3193 38.9519C11.6233 40.6745 12.358 41.9412 13.5233 42.7519C14.7393 43.5119 16.1327 43.8919 17.7033 43.8919C19.3247 43.8919 20.7433 43.3599 21.9593 42.2959C23.226 41.2319 23.8593 39.7119 23.8593 37.7359C23.8593 35.8105 23.2767 34.2399 22.1113 33.0239C20.9967 31.7572 19.2233 31.1239 16.7913 31.1239H12.2313V22.3839H16.9433C19.3753 22.3839 21.098 21.8012 22.1113 20.6359C23.1247 19.4705 23.6313 18.1532 23.6313 16.6839C23.6313 15.1132 23.0487 13.8212 21.8833 12.8079C20.718 11.7439 19.3247 11.2119 17.7033 11.2119C16.538 11.2119 15.3727 11.6172 14.2073 12.4279C13.042 13.1879 12.282 14.6319 11.9273 16.7599L1.21134 14.8599C1.66734 12.5799 2.42734 10.5785 3.49134 8.85588C4.60601 7.08255 5.92334 5.61321 7.44334 4.44788C8.96334 3.23188 10.6353 2.31988 12.4593 1.71188C14.2833 1.05321 16.1833 0.723877 18.1593 0.723877C21.1487 0.723877 23.7327 1.15454 25.9113 2.01588C28.1407 2.82654 29.9647 3.94121 31.3833 5.35988C32.802 6.72788 33.8407 8.34921 34.4993 10.2239C35.2087 12.0479 35.5633 13.9732 35.5633 15.9999C35.5633 16.8612 35.386 17.8239 35.0313 18.8879C34.7273 19.9519 34.2713 20.9905 33.6633 22.0039C33.0553 22.9665 32.3207 23.8785 31.4593 24.7399C30.598 25.6012 29.61 26.2599 28.4953 26.7159C29.762 27.2732 30.8513 27.9825 31.7633 28.8439C32.726 29.7052 33.5113 30.6425 34.1193 31.6559C34.7273 32.6692 35.158 33.7332 35.4113 34.8479C35.7153 35.9119 35.8673 36.9252 35.8673 37.8879C35.8673 40.3199 35.4367 42.5492 34.5753 44.5759C33.714 46.6025 32.498 48.3505 30.9273 49.8199C29.4073 51.2385 27.5327 52.3532 25.3033 53.1639C23.1247 53.9745 20.6927 54.3799 18.0073 54.3799C16.1327 54.3799 14.258 54.1265 12.3833 53.6199C10.5593 53.1132 8.83668 52.3025 7.21534 51.1879C5.64468 50.0732 4.25134 48.6545 3.03534 46.9319C1.87001 45.1585 1.03401 43.0052 0.527344 40.4719L11.3193 38.9519Z" fill="#009E82" fill-opacity="0.45"/>
</svg>
