<svg width="39" height="35" viewBox="0 0 39 35" fill="none" xmlns="http://www.w3.org/2000/svg">
<path d="M35.18 6.44H27.25V3.81C27.25 2.79953 26.8486 1.83044 26.1341 1.11592C25.4196 0.40141 24.4505 0 23.44 0H15.18C14.1695 0 13.2004 0.40141 12.4859 1.11592C11.7714 1.83044 11.37 2.79953 11.37 3.81V6.44H3.8C2.79126 6.44265 1.82474 6.84523 1.11239 7.55945C0.400033 8.27368 -3.47455e-06 9.24126 0 10.25V31.17C0 32.1805 0.40141 33.1496 1.11592 33.8641C1.83044 34.5786 2.79953 34.98 3.81 34.98H35.18C35.6803 34.98 36.1758 34.8815 36.638 34.69C37.1003 34.4985 37.5203 34.2179 37.8741 33.8641C38.2279 33.5103 38.5085 33.0903 38.7 32.628C38.8915 32.1658 38.99 31.6703 38.99 31.17V10.25C38.99 9.74966 38.8915 9.25423 38.7 8.79198C38.5085 8.32973 38.2279 7.90971 37.8741 7.55592C37.5203 7.20213 37.1003 6.92149 36.638 6.73002C36.1758 6.53855 35.6803 6.44 35.18 6.44ZM12.51 3.81C12.51 3.10187 12.7913 2.42275 13.292 1.92202C13.7927 1.4213 14.4719 1.14 15.18 1.14H23.45C24.1547 1.14263 24.8297 1.42373 25.328 1.92201C25.8263 2.42028 26.1074 3.09534 26.11 3.8V6.44H12.51V3.81ZM37.85 31.17C37.8474 31.8764 37.5649 32.553 37.0644 33.0515C36.564 33.5501 35.8864 33.83 35.18 33.83H3.8C3.1023 33.8169 2.43744 33.5312 1.94776 33.0341C1.45808 32.5369 1.18249 31.8678 1.18 31.17V10.25C1.17988 9.55045 1.45431 8.87879 1.94427 8.37949C2.43422 7.88018 3.10057 7.5931 3.8 7.58H35.18C35.8881 7.58 36.5673 7.8613 37.068 8.36203C37.5687 8.86275 37.85 9.54187 37.85 10.25V31.17Z" fill="#1D1D1D"/>
<path d="M25.2998 14.86C24.5286 14.0878 23.6118 13.4765 22.6024 13.0615C21.5931 12.6466 20.5114 12.4363 19.4201 12.4428C18.3289 12.4493 17.2497 12.6725 16.2454 13.0995C15.2411 13.5264 14.3316 14.1486 13.5698 14.93C13.4684 15.0345 13.4116 15.1744 13.4116 15.32C13.4116 15.4656 13.4684 15.6055 13.5698 15.71C13.6754 15.8091 13.8149 15.8643 13.9598 15.8643C14.1047 15.8643 14.2441 15.8091 14.3498 15.71C15.4945 14.5242 17.0143 13.7709 18.6512 13.5781C20.2881 13.3852 21.9413 13.7646 23.3303 14.6519C24.7193 15.5392 25.7586 16.8797 26.2718 18.446C26.7849 20.0123 26.7404 21.7079 26.1457 23.2451C25.5511 24.7823 24.4429 26.0664 23.0092 26.8796C21.5756 27.6927 19.9047 27.9848 18.2802 27.7063C16.6557 27.4278 15.1776 26.5959 14.0966 25.3516C13.0157 24.1074 12.3985 22.5275 12.3498 20.88L12.8698 21.4C12.9754 21.4991 13.1149 21.5543 13.2598 21.5543C13.4047 21.5543 13.5441 21.4991 13.6498 21.4C13.7012 21.3489 13.742 21.2881 13.7698 21.2212C13.7976 21.1542 13.8119 21.0825 13.8119 21.01C13.8119 20.9375 13.7976 20.8657 13.7698 20.7988C13.742 20.7319 13.7012 20.6711 13.6498 20.62L12.1798 19.15C12.0741 19.0508 11.9347 18.9957 11.7898 18.9957C11.6449 18.9957 11.5054 19.0508 11.3998 19.15L9.92976 20.62C9.87836 20.6711 9.83757 20.7319 9.80974 20.7988C9.78191 20.8657 9.76758 20.9375 9.76758 21.01C9.76758 21.0825 9.78191 21.1542 9.80974 21.2212C9.83757 21.2881 9.87836 21.3489 9.92976 21.4C10.0354 21.4991 10.1749 21.5543 10.3198 21.5543C10.4647 21.5543 10.6041 21.4991 10.7098 21.4L11.2398 20.87C11.2674 22.2179 11.6253 23.5385 12.2821 24.7159C12.939 25.8933 13.8747 26.8915 15.0073 27.623C16.1398 28.3546 17.4345 28.797 18.7779 28.9116C20.1212 29.0261 21.4722 28.8093 22.7122 28.2801C23.9523 27.7509 25.0435 26.9256 25.8903 25.8764C26.737 24.8272 27.3134 23.5863 27.5688 22.2625C27.8242 20.9387 27.7509 19.5724 27.3553 18.2835C26.9597 16.9947 26.2539 15.8225 25.2998 14.87V14.86Z" fill="#1D1D1D"/>
<path d="M19.4701 15.49C19.3243 15.49 19.1844 15.5479 19.0812 15.6511C18.9781 15.7542 18.9201 15.8941 18.9201 16.04V16.99H18.7601C18.1979 16.99 17.6586 17.2133 17.2611 17.6109C16.8635 18.0085 16.6401 18.5477 16.6401 19.11C16.6401 19.6722 16.8635 20.2115 17.2611 20.6091C17.6586 21.0066 18.1979 21.23 18.7601 21.23H20.1801C20.4454 21.23 20.6997 21.3353 20.8872 21.5229C21.0748 21.7104 21.1801 21.9648 21.1801 22.23C21.1801 22.4952 21.0748 22.7496 20.8872 22.9371C20.6997 23.1246 20.4454 23.23 20.1801 23.23H17.6201C17.4743 23.23 17.3344 23.2879 17.2312 23.3911C17.1281 23.4942 17.0701 23.6341 17.0701 23.78C17.0701 23.9259 17.1281 24.0658 17.2312 24.1689C17.3344 24.272 17.4743 24.33 17.6201 24.33H18.9201V25.33C18.9201 25.4759 18.9781 25.6158 19.0812 25.7189C19.1844 25.822 19.3243 25.88 19.4701 25.88C19.616 25.88 19.7559 25.822 19.859 25.7189C19.9622 25.6158 20.0201 25.4759 20.0201 25.33V24.33H20.1801C20.7424 24.33 21.2816 24.1066 21.6792 23.7091C22.0768 23.3115 22.3001 22.7722 22.3001 22.21C22.3001 21.6477 22.0768 21.1085 21.6792 20.7109C21.2816 20.3133 20.7424 20.09 20.1801 20.09H18.7601C18.4949 20.09 18.2406 19.9846 18.053 19.7971C17.8655 19.6096 17.7601 19.3552 17.7601 19.09C17.7601 18.8248 17.8655 18.5704 18.053 18.3829C18.2406 18.1953 18.4949 18.09 18.7601 18.09H21.2801C21.426 18.09 21.5659 18.032 21.669 17.9289C21.7722 17.8258 21.8301 17.6859 21.8301 17.54C21.8301 17.3941 21.7722 17.2542 21.669 17.1511C21.5659 17.0479 21.426 16.99 21.2801 16.99H20.0201V16.04C20.0201 15.8941 19.9622 15.7542 19.859 15.6511C19.7559 15.5479 19.616 15.49 19.4701 15.49Z" fill="#009E82"/>
</svg>
