<svg width="36" height="35" viewBox="0 0 36 35" fill="none" xmlns="http://www.w3.org/2000/svg">
<path d="M21.6718 33.08H21.4618C21.1418 33.16 20.8218 33.23 20.4618 33.29C20.2417 33.3311 20.0469 33.458 19.9203 33.6427C19.7937 33.8274 19.7457 34.0549 19.7868 34.275C19.8279 34.4952 19.9548 34.6899 20.1395 34.8165C20.3242 34.9431 20.5517 34.9911 20.7718 34.95C21.1218 34.89 21.4818 34.81 21.8218 34.72C22.0255 34.675 22.2052 34.5558 22.3258 34.3856C22.4465 34.2154 22.4995 34.0064 22.4745 33.7993C22.4496 33.5922 22.3484 33.4018 22.1908 33.2651C22.0332 33.1285 21.8304 33.0554 21.6218 33.06L21.6718 33.08Z" fill="#1D1D1D"/>
<path d="M32.7719 12.63C32.8268 12.7988 32.9338 12.9459 33.0776 13.0501C33.2213 13.1543 33.3944 13.2103 33.5719 13.21C33.7058 13.2107 33.8379 13.1795 33.9572 13.1188C34.0765 13.0581 34.1796 12.9698 34.2579 12.8612C34.3362 12.7525 34.3874 12.6268 34.4072 12.4944C34.427 12.362 34.4149 12.2268 34.3719 12.1C34.2619 11.76 34.1319 11.42 34.0019 11.1C33.9643 10.9933 33.9055 10.8954 33.8292 10.8119C33.7528 10.7285 33.6603 10.6614 33.5574 10.6146C33.4544 10.5677 33.3431 10.5422 33.23 10.5394C33.117 10.5367 33.0045 10.5568 32.8994 10.5986C32.7943 10.6403 32.6987 10.7029 32.6184 10.7825C32.538 10.8621 32.4746 10.9572 32.4319 11.0619C32.3891 11.1666 32.368 11.2789 32.3697 11.392C32.3714 11.5051 32.396 11.6166 32.4419 11.72C32.5519 12.02 32.6719 12.33 32.7719 12.63Z" fill="#1D1D1D"/>
<path d="M26.8917 30.79C26.728 30.7908 26.5681 30.8395 26.4317 30.93C26.1617 31.11 25.8817 31.28 25.6017 31.44C25.5056 31.4949 25.4214 31.5683 25.3537 31.6559C25.2861 31.7435 25.2365 31.8436 25.2077 31.9505C25.1789 32.0574 25.1715 32.1689 25.1859 32.2786C25.2003 32.3884 25.2363 32.4942 25.2917 32.59C25.3512 32.6963 25.4331 32.7884 25.5317 32.86C25.6682 32.9451 25.8259 32.9902 25.9867 32.9902C26.1476 32.9902 26.3052 32.9451 26.4417 32.86C26.7517 32.68 27.0617 32.49 27.3517 32.3C27.5064 32.2022 27.6249 32.0566 27.6893 31.8853C27.7536 31.714 27.7603 31.5263 27.7082 31.3509C27.6562 31.1755 27.5482 31.0218 27.4009 30.9134C27.2535 30.8049 27.0747 30.7475 26.8917 30.75V30.79Z" fill="#1D1D1D"/>
<path d="M34.4019 16.14C34.2915 16.1438 34.183 16.1694 34.0826 16.2152C33.9822 16.2611 33.8917 16.3262 33.8165 16.407C33.7413 16.4878 33.6827 16.5827 33.6442 16.6861C33.6056 16.7896 33.5879 16.8996 33.5919 17.01C33.5919 17.34 33.5919 17.67 33.5919 18.01C33.5892 18.1203 33.6083 18.23 33.6481 18.333C33.6879 18.4359 33.7475 18.53 33.8237 18.6098C33.8998 18.6897 33.991 18.7538 34.0919 18.7984C34.1928 18.843 34.3015 18.8674 34.4119 18.87C34.6305 18.8675 34.8397 18.781 34.9961 18.6282C35.1526 18.4755 35.2442 18.2684 35.2519 18.05C35.2519 17.69 35.2519 17.33 35.2519 16.98C35.2519 16.8688 35.2298 16.7587 35.187 16.6562C35.1441 16.5536 35.0814 16.4606 35.0023 16.3824C34.9232 16.3043 34.8295 16.2426 34.7264 16.201C34.6233 16.1594 34.513 16.1386 34.4019 16.14Z" fill="#1D1D1D"/>
<path d="M31.5518 27.0401C31.4633 26.9734 31.3625 26.9248 31.2552 26.8973C31.1478 26.8697 31.0361 26.8636 30.9264 26.8794C30.8167 26.8952 30.7113 26.9326 30.6161 26.9893C30.5209 27.0461 30.4379 27.1211 30.3718 27.2101C30.1818 27.4701 29.9718 27.7201 29.7618 27.9701C29.6897 28.0545 29.635 28.1524 29.601 28.2581C29.5669 28.3638 29.5542 28.4753 29.5635 28.5859C29.5728 28.6966 29.6039 28.8043 29.6552 28.9029C29.7064 29.0014 29.7766 29.0888 29.8618 29.1601H29.9218C30.0643 29.2634 30.2357 29.3194 30.4118 29.3201C30.5339 29.3196 30.6544 29.2925 30.7649 29.2406C30.8754 29.1888 30.9733 29.1136 31.0518 29.0201C31.2818 28.7501 31.5118 28.4701 31.7218 28.1801C31.8442 28.0042 31.8948 27.7882 31.8632 27.5763C31.8316 27.3644 31.7202 27.1726 31.5518 27.0401Z" fill="#1D1D1D"/>
<path d="M33.9021 21.83C33.7964 21.7959 33.685 21.7831 33.5743 21.7923C33.4636 21.8016 33.3559 21.8327 33.2573 21.8838C33.1587 21.935 33.0713 22.0052 33 22.0903C32.9287 22.1755 32.875 22.2739 32.8421 22.38C32.7421 22.69 32.6321 23 32.5221 23.3C32.4519 23.4761 32.4434 23.6707 32.4978 23.8523C32.5523 24.0338 32.6666 24.1916 32.8221 24.3L33.0121 24.4C33.1157 24.4401 33.2263 24.4592 33.3375 24.4562C33.4486 24.4532 33.558 24.4282 33.6594 24.3827C33.7608 24.3371 33.8521 24.2718 33.9281 24.1907C34.0041 24.1096 34.0632 24.0142 34.1021 23.91C34.2321 23.58 34.3421 23.24 34.4521 22.91C34.4893 22.8031 34.5045 22.6897 34.4968 22.5768C34.489 22.4639 34.4586 22.3537 34.4072 22.2528C34.3559 22.1519 34.2846 22.0625 34.1978 21.9898C34.111 21.9171 34.0104 21.8628 33.9021 21.83Z" fill="#1D1D1D"/>
<path d="M14.8019 33.33C13.4464 33.0855 12.1286 32.6653 10.8819 32.08H10.8319C10.5319 31.94 10.2519 31.8 9.98188 31.65C9.47227 31.3667 8.97823 31.0562 8.50188 30.72C6.39441 29.2479 4.67424 27.2879 3.48811 25.0071C2.30197 22.7264 1.68505 20.1927 1.68996 17.6219C1.69487 15.0512 2.32147 12.5198 3.51631 10.2437C4.71116 7.96748 6.4388 6.01406 8.55188 4.55H8.60188C11.2317 2.74514 14.341 1.76748 17.5305 1.74253C20.72 1.71759 23.8441 2.6465 26.5019 4.41L27.0319 4.76L25.6719 6.64L30.3319 6.27C30.3771 6.27125 30.4217 6.25971 30.4606 6.23671C30.4995 6.21372 30.5312 6.18019 30.5519 6.14C30.5663 6.10862 30.5737 6.07451 30.5737 6.04C30.5737 6.00549 30.5663 5.97138 30.5519 5.94L29.2819 1.43L27.9619 3.34L27.4519 3C24.5637 1.04767 21.158 0.00297109 17.6719 0C16.6664 0.00225052 15.6628 0.0892248 14.6719 0.26C14.2319 0.34 13.7819 0.43 13.3319 0.55H13.2819C9.38365 1.53027 5.94537 3.8307 3.55188 7.06V7.11L3.31188 7.44L2.94188 7.99V8.06C0.901741 11.1126 -0.123569 14.7309 0.0118839 18.4C0.0118839 18.74 0.0118839 19.1 0.0918839 19.45V19.53C0.0918839 19.89 0.181884 20.25 0.241884 20.6C0.852803 24.2009 2.57694 27.5198 5.17188 30.09C5.87213 30.7809 6.62801 31.413 7.43188 31.98C9.52164 33.461 11.9113 34.4647 14.4319 34.92H14.5819C14.7955 34.9258 15.0033 34.8499 15.163 34.7079C15.3226 34.5659 15.4222 34.3683 15.4413 34.1555C15.4604 33.9426 15.3977 33.7305 15.2659 33.5623C15.1341 33.394 14.9431 33.2824 14.7319 33.25L14.8019 33.33Z" fill="#009E82"/>
<path d="M27.2917 22.47L17.6017 17.47V6.89999C17.6017 6.65864 17.5059 6.42718 17.3352 6.25652C17.1645 6.08587 16.9331 5.98999 16.6917 5.98999C16.4504 5.98999 16.2189 6.08587 16.0483 6.25652C15.8776 6.42718 15.7817 6.65864 15.7817 6.89999V18.57L26.4517 24.09C26.6666 24.2014 26.9168 24.2229 27.1475 24.1497C27.3782 24.0766 27.5703 23.9148 27.6817 23.7C27.7931 23.4852 27.8146 23.2349 27.7415 23.0042C27.6683 22.7736 27.5066 22.5814 27.2917 22.47Z" fill="#1D1D1D"/>
</svg>
