<svg width="45" height="33" viewBox="0 0 45 33" fill="none" xmlns="http://www.w3.org/2000/svg">
<path d="M40.6282 23.4786V0.570145C40.6282 0.418933 40.5674 0.273915 40.4592 0.166992C40.3509 0.0600687 40.2041 0 40.0511 0H5.00927C4.85621 0 4.70942 0.0600687 4.6012 0.166992C4.49297 0.273915 4.43217 0.418933 4.43217 0.570145V23.6382L0.0692526 32.1904C0.0237839 32.2746 0 32.3686 0 32.4641C0 32.5595 0.0237839 32.6535 0.0692526 32.7377C0.120325 32.8164 0.190198 32.8815 0.272721 32.9272C0.355243 32.973 0.447881 32.998 0.542479 33H44.4025C44.5555 33 44.7023 32.9399 44.8105 32.833C44.9188 32.7261 44.9796 32.5811 44.9796 32.4299C45.0068 32.3367 45.0068 32.2379 44.9796 32.1448L40.6282 23.4786ZM5.58638 1.12889H39.4971V23.1251H5.58638V1.12889ZM16.5514 31.6203L17.1631 28.0739H27.8049L28.3936 31.6203H16.5514ZM29.9056 31.9623L28.5321 27.1959C28.4789 27.114 28.4053 27.0469 28.3185 27.001C28.2316 26.9551 28.1343 26.9319 28.0358 26.9337H16.9207C16.8126 26.9334 16.7065 26.9633 16.6147 27.0197C16.5228 27.0762 16.4489 27.157 16.4013 27.2529L15.0278 31.9623H1.54664L5.37862 24.368H39.7164L43.5368 31.9053L29.9056 31.9623Z" fill="#1D1D1D"/>
<path d="M25.6696 12.2695C25.3935 11.9937 25.0645 11.7749 24.7018 11.6261C24.3391 11.4773 23.9501 11.4015 23.5574 11.4029H21.4567C21.226 11.4219 20.9939 11.3934 20.7749 11.3192C20.5559 11.245 20.3549 11.1267 20.1846 10.9719C20.0142 10.817 19.8783 10.6289 19.7853 10.4195C19.6923 10.2101 19.6442 9.98389 19.6442 9.7552C19.6442 9.52651 19.6923 9.3003 19.7853 9.09088C19.8783 8.88146 20.0142 8.69337 20.1846 8.53852C20.3549 8.38366 20.5559 8.2654 20.7749 8.19121C20.9939 8.11701 21.226 8.08851 21.4567 8.10748H25.2771C25.3635 8.10748 25.4491 8.09067 25.5289 8.05801C25.6087 8.02534 25.6813 7.97747 25.7423 7.91711C25.8034 7.85676 25.8519 7.7851 25.885 7.70625C25.918 7.62739 25.935 7.54287 25.935 7.45752C25.935 7.37216 25.918 7.28764 25.885 7.20878C25.8519 7.12993 25.8034 7.05828 25.7423 6.99792C25.6813 6.93757 25.6087 6.88969 25.5289 6.85703C25.4491 6.82436 25.3635 6.80755 25.2771 6.80755H23.1534V5.23395C23.1534 5.06157 23.0841 4.89625 22.9607 4.77435C22.8373 4.65246 22.67 4.58398 22.4955 4.58398C22.321 4.58398 22.1537 4.65246 22.0303 4.77435C21.9069 4.89625 21.8376 5.06157 21.8376 5.23395V6.78474H21.4336C20.6744 6.83142 19.9617 7.16229 19.4408 7.70995C18.9199 8.25761 18.6299 8.98087 18.6299 9.73239C18.6299 10.4839 18.9199 11.2072 19.4408 11.7548C19.9617 12.3025 20.6744 12.6334 21.4336 12.68H23.5458C23.7765 12.6611 24.0087 12.6896 24.2276 12.7638C24.4466 12.838 24.6476 12.9562 24.818 13.1111C24.9883 13.2659 25.1243 13.454 25.2173 13.6634C25.3103 13.8729 25.3583 14.0991 25.3583 14.3278C25.3583 14.5565 25.3103 14.7827 25.2173 14.9921C25.1243 15.2015 24.9883 15.3896 24.818 15.5444C24.6476 15.6993 24.4466 15.8176 24.2276 15.8918C24.0087 15.966 23.7765 15.9945 23.5458 15.9755H19.7369C19.5624 15.9755 19.3951 16.044 19.2717 16.1659C19.1483 16.2877 19.079 16.4531 19.079 16.6254C19.079 16.7978 19.1483 16.9632 19.2717 17.085C19.3951 17.2069 19.5624 17.2754 19.7369 17.2754H21.8376V18.8604C21.8376 19.0328 21.9069 19.1981 22.0303 19.32C22.1537 19.4419 22.321 19.5104 22.4955 19.5104C22.67 19.5104 22.8373 19.4419 22.9607 19.32C23.0841 19.1981 23.1534 19.0328 23.1534 18.8604V17.2982H23.5689C24.3578 17.2952 25.1134 16.9843 25.6712 16.4332C26.229 15.8822 26.5437 15.1356 26.5468 14.3563C26.5483 13.9683 26.4714 13.584 26.3208 13.2257C26.1702 12.8674 25.9488 12.5423 25.6696 12.2695Z" fill="#009E82"/>
</svg>
