<svg width="26" height="26" viewBox="0 0 26 26" fill="none" xmlns="http://www.w3.org/2000/svg">
<path d="M24.5739 8.6011C24.5284 8.47198 24.4341 8.36623 24.3116 8.30694C24.189 8.24765 24.0482 8.23966 23.9198 8.28469C23.7937 8.33053 23.6904 8.42415 23.6317 8.54562C23.5731 8.66709 23.5638 8.80682 23.6058 8.93509C24.4966 11.5459 24.4439 14.39 23.457 16.9655C22.4701 19.541 20.6124 21.6825 18.2117 23.0123C15.8109 24.342 13.0213 24.7746 10.335 24.2337C7.64862 23.6928 5.23812 22.2131 3.52866 20.0557C1.81921 17.8983 0.920647 15.2018 0.991477 12.4418C1.06231 9.68185 2.09798 7.03575 3.91581 4.9703C5.73363 2.90485 8.21681 1.55274 10.9273 1.1525C13.6378 0.752252 16.4015 1.32958 18.7308 2.78264C18.8466 2.85451 18.9859 2.87728 19.1182 2.84599C19.2506 2.8147 19.3653 2.73189 19.4372 2.61565C19.5086 2.49899 19.5311 2.35864 19.5001 2.22524C19.4691 2.09185 19.3869 1.97626 19.2715 1.90372C16.7415 0.326252 13.74 -0.30028 10.7964 0.134598C7.85275 0.569477 5.15599 2.03784 3.1816 4.28078C1.20721 6.52372 0.0819744 9.3972 0.00430696 12.3946C-0.0733605 15.3919 0.901525 18.3207 2.75707 20.6644C4.61261 23.0082 7.22965 24.6164 10.1467 25.2055C13.0638 25.7946 16.0937 25.3268 18.702 23.8846C21.3103 22.4424 23.3296 20.1183 24.4039 17.3222C25.4781 14.5261 25.5383 11.4376 24.5739 8.6011Z" fill="#1D1D1D"/>
<path d="M23.4137 3.4067C23.3022 3.31461 23.1593 3.27037 23.0157 3.28353C22.8722 3.29668 22.7395 3.36617 22.6463 3.47702L12.5387 15.5622L6.88758 10.2183C6.83767 10.1588 6.77585 10.1105 6.70616 10.0767C6.63647 10.0429 6.56049 10.0243 6.48318 10.0222C6.40587 10.02 6.32897 10.0343 6.25752 10.0641C6.18608 10.094 6.12169 10.1387 6.06856 10.1953C6.01544 10.252 5.97478 10.3193 5.94925 10.3929C5.92372 10.4665 5.91389 10.5446 5.92041 10.6223C5.92692 10.7 5.94964 10.7754 5.98706 10.8436C6.02449 10.9118 6.07578 10.9713 6.13758 11.0182L12.2422 16.7663C12.2971 16.8176 12.3617 16.8573 12.4321 16.883C12.5025 16.9087 12.5773 16.9198 12.6521 16.9157C12.7257 16.9111 12.7976 16.8916 12.8635 16.8583C12.9294 16.8251 12.988 16.7789 13.0358 16.7224L23.501 4.18015C23.5923 4.06778 23.6362 3.92372 23.6232 3.77903C23.6101 3.63435 23.5412 3.50062 23.4312 3.4067H23.4137Z" fill="#009E82"/>
</svg>
