<svg width="43" height="30" viewBox="0 0 43 30" fill="none" xmlns="http://www.w3.org/2000/svg">
<path d="M23.8424 14.286C22.4097 14.286 21.0092 13.8671 19.818 13.0822C18.6267 12.2973 17.6983 11.1817 17.15 9.8765C16.6018 8.57129 16.4583 7.13507 16.7378 5.74947C17.0173 4.36386 17.7072 3.0911 18.7203 2.09214C19.7333 1.09317 21.024 0.412868 22.4292 0.137254C23.8343 -0.13836 25.2908 0.00309496 26.6144 0.543731C27.938 1.08437 29.0694 1.9999 29.8653 3.17456C30.6613 4.34922 31.0861 5.73025 31.0861 7.143C31.083 9.03651 30.3189 10.8516 28.9611 12.1905C27.6033 13.5294 25.7626 14.283 23.8424 14.286ZM23.8424 1.21534C22.6535 1.21534 21.4912 1.56299 20.5027 2.21433C19.5142 2.86567 18.7437 3.79145 18.2887 4.87458C17.8337 5.95772 17.7147 7.14957 17.9466 8.29943C18.1786 9.44928 18.7511 10.5055 19.5918 11.3345C20.4325 12.1635 21.5036 12.728 22.6696 12.9568C23.8357 13.1855 25.0444 13.0681 26.1428 12.6194C27.2412 12.1708 28.18 11.411 28.8405 10.4362C29.5011 9.46143 29.8536 8.31538 29.8536 7.143C29.8536 5.56983 29.2207 4.06093 28.0937 2.94745C26.9667 1.83398 25.4377 1.20692 23.8424 1.20388V1.21534Z" fill="#009E82"/>
<path d="M23.8423 2.77469C23.719 2.77469 23.6007 2.82301 23.5135 2.90902C23.4262 2.99502 23.3772 3.11168 23.3772 3.23331V4.02443H23.2377C22.7582 4.02443 22.2983 4.21227 21.9592 4.54662C21.6202 4.88098 21.4297 5.33446 21.4297 5.80731C21.4297 6.28016 21.6202 6.73364 21.9592 7.068C22.2983 7.40235 22.7582 7.59019 23.2377 7.59019H24.4004C24.6302 7.59019 24.8505 7.68019 25.0129 7.84037C25.1754 8.00056 25.2667 8.21783 25.2667 8.44437C25.2667 8.67091 25.1754 8.88818 25.0129 9.04837C24.8505 9.20855 24.6302 9.29855 24.4004 9.29855H22.261C22.1361 9.29855 22.0164 9.34747 21.9281 9.43455C21.8397 9.52164 21.7901 9.63975 21.7901 9.7629C21.7901 9.88605 21.8397 10.0042 21.9281 10.0912C22.0164 10.1783 22.1361 10.2273 22.261 10.2273H23.4237V11.0298C23.4237 11.153 23.4734 11.2711 23.5617 11.3582C23.65 11.4453 23.7698 11.4942 23.8947 11.4942C24.0195 11.4942 24.1393 11.4453 24.2276 11.3582C24.3159 11.2711 24.3656 11.153 24.3656 11.0298V10.2273H24.5283C25.0079 10.2273 25.4677 10.0394 25.8068 9.70506C26.1459 9.3707 26.3364 8.91722 26.3364 8.44437C26.3364 7.97152 26.1459 7.51804 25.8068 7.18368C25.4677 6.84933 25.0079 6.66149 24.5283 6.66149H23.3656C23.1359 6.66149 22.9155 6.57149 22.7531 6.41131C22.5907 6.25112 22.4994 6.03385 22.4994 5.80731C22.4994 5.58077 22.5907 5.3635 22.7531 5.20331C22.9155 5.04312 23.1359 4.95313 23.3656 4.95313H25.5166C25.6415 4.95313 25.7613 4.90421 25.8496 4.81713C25.9379 4.73004 25.9875 4.61193 25.9875 4.48878C25.9875 4.36563 25.9379 4.24752 25.8496 4.16043C25.7613 4.07335 25.6415 4.02443 25.5166 4.02443H24.4469V3.23331C24.4479 3.16033 24.4315 3.08814 24.3992 3.02247C24.3669 2.95679 24.3196 2.89943 24.2609 2.85493C24.2023 2.81043 24.1339 2.78001 24.0612 2.76608C23.9886 2.75216 23.9136 2.7551 23.8423 2.77469Z" fill="#009E82"/>
<path d="M16.1333 17.0147L23.7375 19.3078L23.6445 19.7435C23.628 19.8218 23.6047 19.8985 23.5747 19.9728C23.4417 20.2921 23.2211 20.5684 22.9377 20.771C22.6543 20.9735 22.3192 21.0941 21.9702 21.1194C20.7643 21.2816 19.5478 21.3544 18.3309 21.3372C17.4588 21.3372 16.4938 21.3372 15.5985 21.2684H15.5055C15.391 21.2713 15.2796 21.3062 15.1845 21.3691C15.0893 21.4319 15.0142 21.5201 14.9679 21.6235C14.9216 21.7268 14.906 21.8409 14.923 21.9526C14.9399 22.0644 14.9887 22.169 15.0636 22.2544C15.1678 22.3699 15.3141 22.44 15.4706 22.4494C15.8775 22.4494 16.9705 22.5296 18.2844 22.5296C19.5793 22.5472 20.8737 22.4667 22.1562 22.2888C22.9938 22.1744 23.7535 21.7431 24.2743 21.0861C24.7951 20.4292 25.0363 19.5981 24.9467 18.7689C24.9355 18.6504 24.8885 18.5379 24.8118 18.446C24.7351 18.354 24.6323 18.2868 24.5165 18.253L16.4705 15.8567C15.6929 15.6312 14.8859 15.5191 14.0753 15.5242C12.0827 15.5809 10.125 16.0537 8.33149 16.9115L0.297102 21.7041C0.227915 21.7436 0.167531 21.7964 0.119577 21.8594C0.0716225 21.9225 0.0370885 21.9945 0.0180497 22.071C-0.0210923 22.227 0.00399075 22.3919 0.0878128 22.5296C0.176197 22.6641 0.31403 22.7596 0.472326 22.7959C0.630623 22.8323 0.797046 22.8067 0.936597 22.7245L8.88959 18.0008C10.5022 17.2168 12.2666 16.7828 14.0637 16.7281C14.7641 16.7232 15.4614 16.8197 16.1333 17.0147Z" fill="#1D1D1D"/>
<path d="M39.8065 14.0452C39.1833 14.0582 38.5696 14.1987 38.0043 14.4579C35.6789 15.4784 31.1792 17.5995 29.7025 18.2874L29.4467 18.402L29.156 18.5396C29.0863 18.5748 29.0244 18.6232 28.9737 18.6821C28.9231 18.7409 28.8848 18.8091 28.861 18.8826C28.8372 18.9562 28.8284 19.0337 28.8352 19.1106C28.8419 19.1875 28.864 19.2623 28.9002 19.3308C28.9766 19.4655 29.1005 19.5679 29.2483 19.6187C29.3962 19.6694 29.5578 19.6648 29.7025 19.6059L30.1327 19.411C31.6094 18.7116 36.1207 16.579 38.4926 15.5471C38.8794 15.3384 39.3133 15.229 39.7542 15.229C40.1951 15.229 40.629 15.3384 41.0158 15.5471L41.6552 16.0287L41.0855 16.43L26.1562 27.1846C24.9835 28.0173 23.528 28.3669 22.0983 28.1592L8.7852 26.061H8.69218C8.54831 26.0608 8.40875 26.1094 8.29686 26.1986L4.9366 28.9618C4.87436 29.0106 4.82273 29.0713 4.78478 29.1403C4.74683 29.2092 4.72333 29.285 4.71568 29.363C4.70875 29.4411 4.7175 29.5198 4.74144 29.5946C4.76539 29.6694 4.80405 29.7387 4.85521 29.7987C4.96399 29.9141 5.11263 29.9852 5.27187 29.9979C5.43111 30.0106 5.58941 29.9641 5.71562 29.8675L8.86659 27.2763H9.0875L21.8774 29.2943C23.6245 29.5694 25.4113 29.1577 26.8538 28.1477L42.7598 16.6822C42.8767 16.5953 42.9575 16.4695 42.9875 16.3283C43.0174 16.187 42.9944 16.0398 42.9226 15.914C42.6159 15.3597 42.1662 14.895 41.6191 14.5669C41.072 14.2388 40.4467 14.0588 39.8065 14.0452Z" fill="#1D1D1D"/>
</svg>
