<svg width="34" height="31" viewBox="0 0 34 31" fill="none" xmlns="http://www.w3.org/2000/svg">
<path d="M27.84 18.8542C27.7021 18.8542 27.5698 18.909 27.4723 19.0066C27.3748 19.1041 27.32 19.2363 27.32 19.3742C27.32 19.4771 27.2895 19.5776 27.2324 19.6631C27.1752 19.7487 27.094 19.8153 26.999 19.8547C26.904 19.894 26.7994 19.9043 26.6986 19.8843C26.5977 19.8642 26.505 19.8147 26.4323 19.7419C26.3596 19.6692 26.3101 19.5766 26.29 19.4757C26.2699 19.3748 26.2802 19.2703 26.3196 19.1753C26.3589 19.0802 26.4256 18.999 26.5111 18.9419C26.5966 18.8847 26.6972 18.8542 26.8 18.8542C26.9087 18.8232 27.0043 18.7576 27.0723 18.6674C27.1404 18.5772 27.1772 18.4673 27.1772 18.3542C27.1772 18.2412 27.1404 18.1313 27.0723 18.0411C27.0043 17.9509 26.9087 17.8853 26.8 17.8542C26.4934 17.8542 26.1938 17.9452 25.9389 18.1155C25.684 18.2858 25.4853 18.5279 25.368 18.8111C25.2507 19.0943 25.22 19.406 25.2798 19.7066C25.3396 20.0073 25.4872 20.2835 25.704 20.5003C25.9208 20.717 26.1969 20.8647 26.4976 20.9245C26.7983 20.9843 27.1099 20.9536 27.3932 20.8363C27.6764 20.7189 27.9185 20.5203 28.0888 20.2654C28.2591 20.0105 28.35 19.7108 28.35 19.4042C28.35 19.2663 28.2952 19.1341 28.1977 19.0366C28.1002 18.939 27.9679 18.8842 27.83 18.8842L27.84 18.8542Z" fill="#1D1D1D"/>
<path d="M31.9699 23.3342H32.3599C32.4479 23.333 32.5348 23.3139 32.6152 23.2782C32.6956 23.2424 32.7679 23.1908 32.8277 23.1262C32.8876 23.0617 32.9337 22.9857 32.9633 22.9029C32.9929 22.82 33.0054 22.732 32.9999 22.6442V15.6442C32.9974 15.4752 32.9291 15.3139 32.8096 15.1945C32.6902 15.075 32.5289 15.0067 32.3599 15.0042H31.9699V23.3342ZM32.1099 15.0042H23.3999C23.3067 15.0042 23.2144 15.0225 23.1282 15.0582C23.0421 15.0939 22.9638 15.1462 22.8979 15.2121C22.832 15.278 22.7797 15.3563 22.744 15.4424C22.7083 15.5286 22.6899 15.6209 22.6899 15.7142V22.6442C22.6899 22.8325 22.7647 23.013 22.8979 23.1462C23.031 23.2793 23.2116 23.3541 23.3999 23.3541H31.9699L32.1099 15.0042ZM31.9699 22.3541H23.6999V16.1142H31.9499L31.9699 22.3541Z" fill="#1D1D1D"/>
<path d="M30.94 23.5242V28.1442C30.927 28.5466 30.758 28.9281 30.4687 29.208C30.1794 29.488 29.7926 29.6444 29.39 29.6442H2.58C2.16891 29.6442 1.77467 29.4809 1.48398 29.1902C1.1933 28.8995 1.03 28.5053 1.03 28.0942V8.5442C1.47594 8.88229 2.02039 9.06494 2.58 9.0642H29.39C29.5961 9.06416 29.8001 9.10523 29.9902 9.18499C30.1802 9.26475 30.3524 9.38162 30.4968 9.52874C30.6411 9.67586 30.7546 9.85029 30.8307 10.0418C30.9068 10.2334 30.944 10.4381 30.94 10.6442V15.1042H31.94V6.4842C31.9386 5.82688 31.6863 5.1949 31.2347 4.71728C30.7831 4.23966 30.1662 3.95242 29.51 3.9142L28.85 1.1842C28.7547 0.791979 28.5102 0.452385 28.1685 0.237626C27.8268 0.022868 27.4147 -0.0501134 27.02 0.0342005L10.96 3.9242H10.83H2.58C1.89919 3.92418 1.24597 4.19325 0.762699 4.67278C0.279426 5.15231 0.00527758 5.80341 0 6.4842V28.1342C0 28.8185 0.271821 29.4747 0.755665 29.9585C1.23951 30.4424 1.89574 30.7142 2.58 30.7142H29.39C30.0743 30.7142 30.7305 30.4424 31.2143 29.9585C31.6982 29.4747 31.97 28.8185 31.97 28.1342V23.5242H30.94ZM30.94 6.5242C30.6769 6.32578 30.3782 6.1798 30.06 6.0942L29.8 5.0342C30.1203 5.1219 30.4039 5.31013 30.6092 5.57118C30.8144 5.83222 30.9304 6.15228 30.94 6.4842V6.5242ZM2.58 4.9342H6.78L2.48 5.9342H2.4V6.1342V6.6442V6.7642H26.81C26.9187 6.73316 27.0143 6.66757 27.0823 6.57735C27.1504 6.48714 27.1872 6.37721 27.1872 6.2642C27.1872 6.15119 27.1504 6.04126 27.0823 5.95105C27.0143 5.86083 26.9187 5.79524 26.81 5.7642H6.9L27.26 1.0342C27.3257 1.01786 27.394 1.01476 27.4609 1.02508C27.5277 1.03539 27.5919 1.05892 27.6496 1.09429C27.7073 1.12966 27.7574 1.17616 27.797 1.23109C27.8365 1.28601 27.8647 1.34826 27.88 1.4142L28.98 5.9642H28.88C28.8026 5.94209 28.7211 5.93825 28.642 5.95298C28.5629 5.96771 28.4883 6.0006 28.424 6.04907C28.3598 6.09754 28.3076 6.16026 28.2717 6.23229C28.2359 6.30433 28.2172 6.38372 28.2172 6.4642C28.2172 6.54468 28.2359 6.62407 28.2717 6.69611C28.3076 6.76814 28.3598 6.83086 28.424 6.87933C28.4883 6.9278 28.5629 6.96069 28.642 6.97542C28.7211 6.99015 28.8026 6.98631 28.88 6.9642H29.61C29.9871 7.0181 30.3312 7.20899 30.5765 7.50042C30.8218 7.79186 30.9512 8.16342 30.94 8.5442C30.4941 8.20611 29.9496 8.02346 29.39 8.0242H2.58C2.19171 7.99294 1.82942 7.81661 1.56525 7.53031C1.30108 7.24402 1.1544 6.86875 1.1544 6.4792C1.1544 6.08965 1.30108 5.71438 1.56525 5.42809C1.82942 5.14179 2.19171 4.96546 2.58 4.9342Z" fill="#009E82"/>
</svg>
