<svg width="29" height="32" viewBox="0 0 29 32" fill="none" xmlns="http://www.w3.org/2000/svg">
<path d="M28.9509 6.02L28.4509 5.97C25.041 5.55797 21.7433 4.4882 18.7409 2.82C17.3743 2.1062 16.0757 1.26941 14.8609 0.32L14.4809 0L14.1009 0.32C12.8797 1.27025 11.5743 2.10706 10.2009 2.82C7.19861 4.47303 3.90466 5.52913 0.500904 5.93L0.000904134 5.98V6.48C-0.0243289 9.76566 0.478755 13.034 1.4909 16.16C2.39293 19.1214 3.80403 21.903 5.6609 24.38C7.92407 27.3288 10.8588 29.6945 14.2209 31.28L14.4709 31.4L14.7209 31.28C18.083 29.6945 21.0177 27.3288 23.2809 24.38C25.1399 21.9197 26.5576 19.1553 27.4709 16.21C28.4882 13.0815 28.9947 9.80961 28.9709 6.52L28.9509 6.02ZM27.8009 7.62C27.6918 10.4048 27.2109 13.1626 26.3709 15.82C25.5001 18.6385 24.1467 21.2844 22.3709 23.64C20.3414 26.2866 17.7399 28.4403 14.7609 29.94L14.4809 30.08L14.2009 29.94C11.237 28.4477 8.64652 26.3083 6.6209 23.68C4.84834 21.3371 3.49501 18.7048 2.6209 15.9C1.76162 13.2185 1.26719 10.4335 1.1509 7.62V7.08L1.6909 7C3.26726 6.75 4.81718 6.35499 6.3209 5.82C7.88711 5.28046 9.40569 4.61149 10.8609 3.82C11.9869 3.22521 13.0725 2.55711 14.1109 1.82L14.4709 1.55L14.8609 1.82C15.9056 2.55805 16.998 3.22618 18.1309 3.82C19.5701 4.60893 21.0718 5.27786 22.6209 5.82C24.1321 6.34593 25.6888 6.73091 27.2709 6.97L27.8109 7.05L27.8009 7.62Z" fill="#1D1D1D"/>
<path d="M13.101 18.77L9.54102 15.2L8.54102 16.2L13.101 20.76L21.961 11.9L20.971 10.91L13.101 18.77Z" fill="#009E82"/>
</svg>
