<svg width="22" height="13" viewBox="0 0 22 13" fill="none" xmlns="http://www.w3.org/2000/svg">
<g id="VK">
<path id="Shape" fill-rule="evenodd" clip-rule="evenodd" d="M11.7214 12.4512C11.7214 12.4512 12.1067 12.4089 12.304 12.1992C12.4847 12.0072 12.4784 11.6447 12.4784 11.6447C12.4784 11.6447 12.4544 9.95231 13.249 9.70242C14.0322 9.45666 15.0377 11.3391 16.1048 12.0629C16.9109 12.6102 17.5228 12.4904 17.5228 12.4904L20.3745 12.4512C20.3745 12.4512 21.8655 12.3603 21.1586 11.2007C21.1002 11.1057 20.7462 10.3426 19.039 8.77514C17.2503 7.13434 17.4905 7.39972 19.6435 4.5611C20.955 2.83253 21.4792 1.77721 21.3153 1.32597C21.1597 0.89434 20.1949 1.00896 20.1949 1.00896L16.9851 1.02858C16.9851 1.02858 16.747 0.996567 16.5705 1.10086C16.3982 1.20309 16.2865 1.44162 16.2865 1.44162C16.2865 1.44162 15.7791 2.77883 15.1014 3.91676C13.6719 6.31652 13.1008 6.44353 12.8669 6.29484C12.3228 5.94685 12.4586 4.89876 12.4586 4.15426C12.4586 1.82781 12.8157 0.858199 11.7642 0.607277C11.4155 0.523636 11.1586 0.468908 10.2658 0.459615C9.12037 0.448256 8.15137 0.463745 7.60214 0.729124C7.23668 0.905698 6.95475 1.30015 7.12704 1.32287C7.33901 1.35075 7.81933 1.45091 8.0741 1.79373C8.40302 2.23672 8.39153 3.23008 8.39153 3.23008C8.39153 3.23008 8.58053 5.96854 7.94985 6.30826C7.51756 6.54163 6.92447 6.0656 5.64954 3.88785C4.99693 2.77264 4.50408 1.53971 4.50408 1.53971C4.50408 1.53971 4.40906 1.30944 4.23886 1.18553C4.03316 1.03581 3.74601 0.989339 3.74601 0.989339L0.695981 1.00896C0.695981 1.00896 0.237589 1.02135 0.0694775 1.21858C-0.0798391 1.39309 0.0579916 1.75553 0.0579916 1.75553C0.0579916 1.75553 2.44601 7.28097 5.15042 10.0659C7.63033 12.6185 10.4454 12.4512 10.4454 12.4512H11.7214Z" fill="#BEBEBE"/>
</g>
</svg>
