<svg width="22" height="16" viewBox="0 0 22 16" fill="none" xmlns="http://www.w3.org/2000/svg">
<g id="Youtube">
<path id="Fill 1.1" fill-rule="evenodd" clip-rule="evenodd" d="M20.9027 2.41445C20.6572 1.46422 19.9338 0.715962 19.0151 0.462012C17.3504 0.000488281 10.6744 0.000488281 10.6744 0.000488281C10.6744 0.000488281 3.99842 0.000488281 2.33357 0.462012C1.41497 0.715962 0.691533 1.46422 0.446021 2.41445C0 4.13662 0 7.72995 0 7.72995C0 7.72995 0 11.3231 0.446021 13.0454C0.691533 13.9957 1.41497 14.7439 2.33357 14.998C3.99842 15.4594 10.6744 15.4594 10.6744 15.4594C10.6744 15.4594 17.3504 15.4594 19.0151 14.998C19.9338 14.7439 20.6572 13.9957 20.9027 13.0454C21.3488 11.3231 21.3488 7.72995 21.3488 7.72995C21.3488 7.72995 21.3488 4.13662 20.9027 2.41445Z" fill="#BEBEBE"/>
<path id="Fill 2.1" fill-rule="evenodd" clip-rule="evenodd" d="M8.67285 11.4268V4.70557L14.0101 8.06633L8.67285 11.4268Z" fill="#F4F4F4"/>
</g>
</svg>
