<svg width="37" height="30" viewBox="0 0 37 30" fill="none" xmlns="http://www.w3.org/2000/svg">
<path d="M33.7891 0.263672L36.084 3.19336C32.8939 5.56966 30.4525 7.92969 28.7598 10.2734C27.0996 12.6172 26.2695 14.847 26.2695 16.9629C26.2695 17.321 26.2695 17.6139 26.2695 17.8418C26.3021 18.0371 26.3509 18.2487 26.416 18.4766C26.8717 18.3138 27.3275 18.1999 27.7832 18.1348C28.2715 18.0371 28.7109 17.9883 29.1016 17.9883C31.0221 17.9883 32.5033 18.5091 33.5449 19.5508C34.6191 20.5599 35.1562 21.9759 35.1562 23.7988C35.1562 25.4915 34.554 26.9564 33.3496 28.1934C32.1452 29.3978 30.6966 30 29.0039 30C26.5951 30 24.6419 29.0723 23.1445 27.2168C21.6471 25.3613 20.8984 22.9199 20.8984 19.8926C20.8984 16.1491 21.9889 12.6172 24.1699 9.29688C26.3509 5.97656 29.5573 2.96549 33.7891 0.263672ZM12.793 0.263672L15.0879 3.19336C11.8978 5.56966 9.45638 7.92969 7.76367 10.2734C6.10352 12.6172 5.27344 14.847 5.27344 16.9629C5.27344 17.1908 5.32227 17.5977 5.41992 18.1836C5.45247 18.3138 5.48503 18.4115 5.51758 18.4766C6.00586 18.3138 6.46159 18.1999 6.88477 18.1348C7.34049 18.0371 7.73112 17.9883 8.05664 17.9883C10.0098 17.9883 11.5072 18.5091 12.5488 19.5508C13.623 20.5599 14.1602 21.9759 14.1602 23.7988C14.1602 25.4915 13.5579 26.9564 12.3535 28.1934C11.1816 29.3978 9.74935 30 8.05664 30C5.68034 30 3.74349 29.0723 2.24609 27.2168C0.748698 25.3613 0 22.9199 0 19.8926C0 16.1165 1.07422 12.5684 3.22266 9.24805C5.40365 5.92773 8.59375 2.93294 12.793 0.263672Z" fill="#009E82" fill-opacity="0.45"/>
</svg>
